PathFileType	4	(X/Y/Z)	 s06c0102.trc
DataRate	CameraRate	NumFrames	NumMarkers	Units	OrigDataRate	OrigDataStartFrame	OrigNumFrames
200	200	4	48	mm	200	1751	2000
Frame#	Time	racr			lacr			c7			jug			rlel			rdr			llel			ldr			s2			lic			ric			lasi			rasi			rpsi			lpsi			rgt			lgt			rth1			rth2			rth3			rth4			rlfc			rmfc			rsh1			rsh2			rsh3			rsh4			rlmal			rcal			rtoe			rmt5			lth1			lth2			lth4			lth3			llfc			lmfc			llmal			lcal			lmt5			lsh1			lsh2			lsh3			lsh4			ltoe			SBIKE			LBIKE			RBIKE			
		X1	Y1	Z1	X2	Y2	Z2	X3	Y3	Z3	X4	Y4	Z4	X5	Y5	Z5	X6	Y6	Z6	X7	Y7	Z7	X8	Y8	Z8	X9	Y9	Z9	X10	Y10	Z10	X11	Y11	Z11	X12	Y12	Z12	X13	Y13	Z13	X14	Y14	Z14	X15	Y15	Z15	X16	Y16	Z16	X17	Y17	Z17	X18	Y18	Z18	X19	Y19	Z19	X20	Y20	Z20	X21	Y21	Z21	X22	Y22	Z22	X23	Y23	Z23	X24	Y24	Z24	X25	Y25	Z25	X26	Y26	Z26	X27	Y27	Z27	X28	Y28	Z28	X29	Y29	Z29	X30	Y30	Z30	X31	Y31	Z31	X32	Y32	Z32	X33	Y33	Z33	X34	Y34	Z34	X35	Y35	Z35	X36	Y36	Z36	X37	Y37	Z37	X38	Y38	Z38	X39	Y39	Z39	X40	Y40	Z40	X41	Y41	Z41	X42	Y42	Z42	X43	Y43	Z43	X44	Y44	Z44	X45	Y45	Z45	X46	Y46	Z46	X47	Y47	Z47	X48	Y48	Z48	
1751	8.7550	461.563625	1321.203080	-61.097860	491.549099	1312.784301	-360.324340	463.327119	1391.164923	-211.342507	459.523275	1230.491145	-204.246600	534.073022	1084.242979	29.733482	719.706101	924.531658	-44.252643	513.936765	1060.857903	-456.133533	710.546561	926.322326	-391.563854	-52.018095	1118.299622	-218.041887	122.804088	1103.153973	-385.876043	93.969026	1108.150286	-57.559364	145.019559	1047.754431	-350.388018	134.618229	1073.405223	-92.815044	-25.063521	1163.384459	-193.730969	-24.624746	1154.798518	-257.681360	76.200568	1030.961687	-23.347725	98.309692	1027.251932	-416.231081	185.460747	959.146303	-14.979545	271.433341	928.148295	-16.818579	326.657782	861.665974	-16.074763	288.446309	955.861457	-36.365523	372.142195	768.749164	-40.161104	361.582949	746.632621	-152.885437	280.698840	686.619730	-17.495908	227.639235	621.587848	-37.758226	146.301062	586.100406	-43.023724	242.107112	607.403830	-74.064164	75.733141	546.921717	-50.705026	15.405783	572.068987	-98.881283	173.200402	345.260791	-93.007116	95.647798	409.294093	-26.486771	162.238648	916.715072	-433.370183	238.551268	875.037706	-424.779132	262.948965	901.190023	-412.712030	284.092007	798.906627	-415.106140	341.834377	701.103042	-385.348394	345.395636	685.323578	-270.772352	274.985298	339.694727	-376.137860	202.191807	324.767650	-328.437884	380.436818	243.351959	-402.980004	329.508788	595.326214	-408.314829	334.558303	511.080747	-386.660602	298.741897	429.631032	-385.058486	358.248077	511.639371	-355.447472	466.824429	229.956612	-346.126722	-203.537567	868.612894	-206.620811	-49.327575	83.972240	-413.837430	-48.900401	80.078423	-16.342503	
1752	8.7600	461.606195	1321.888671	-60.814851	491.917226	1313.798386	-359.775335	463.446526	1392.038875	-210.973113	459.811918	1231.370312	-203.940039	534.362185	1084.823021	30.094207	719.834322	924.644130	-44.229183	514.849885	1062.011245	-455.962013	710.798475	926.262801	-391.460352	-51.645039	1118.537824	-218.465884	123.262985	1103.271548	-385.715957	94.071664	1108.469126	-57.566862	145.359335	1047.533594	-350.557636	134.998398	1074.039256	-93.175473	-24.553220	1163.823808	-194.355347	-24.114465	1154.975428	-257.930971	76.687072	1033.133210	-23.110836	98.163022	1026.382649	-416.214083	186.154839	962.663289	-15.408485	272.582600	933.101324	-17.198885	328.918609	867.509265	-15.962053	289.125756	960.776583	-36.838639	375.772598	774.800776	-40.049970	365.555065	752.304924	-152.621329	284.427359	692.681041	-17.030721	230.889927	628.326042	-37.462596	149.602563	592.483646	-42.886772	245.485499	613.616977	-73.976746	78.945680	553.135667	-50.629269	17.873420	577.549852	-99.350038	177.361124	352.181606	-93.056407	99.501736	415.875786	-26.536878	160.975037	914.736161	-433.207316	236.481095	871.666285	-424.534258	261.319760	897.307829	-412.398567	280.619233	794.599030	-414.888510	337.087362	695.574029	-385.142475	341.363538	680.553258	-270.379527	271.326389	333.892137	-376.096586	198.812896	319.281360	-328.437962	376.608263	236.959155	-402.950446	324.749240	589.817791	-408.095869	330.164309	505.418206	-386.660576	294.675681	423.980707	-385.043961	354.043372	505.984251	-355.528971	462.999206	223.074667	-346.153059	-203.549190	868.608628	-206.631865	-49.355004	83.942500	-413.820218	-48.923897	80.084876	-16.332965	
1753	8.7650	461.605621	1322.510526	-60.481337	492.259711	1314.882425	-359.199615	463.543471	1392.832038	-210.536697	460.106754	1232.234527	-203.582996	534.672098	1085.335416	30.382933	720.044859	924.507047	-43.974806	515.703990	1063.075509	-455.855430	711.060035	926.157344	-391.366024	-51.326918	1118.671110	-218.742579	123.766956	1103.302247	-385.540179	95.099557	1108.778634	-57.556432	145.873315	1047.384459	-350.759710	135.638344	1074.395472	-94.062480	-24.170328	1164.040966	-194.624342	-23.598304	1155.018928	-258.174615	77.359817	1034.663387	-23.640698	98.035814	1025.342786	-416.216682	186.818127	966.187264	-15.762350	273.720297	937.985079	-17.418930	331.055028	873.455861	-15.740052	289.760437	965.934676	-37.267254	379.179664	781.438276	-39.595201	369.432304	758.297452	-152.374526	287.638823	698.660179	-16.866022	234.403092	634.364415	-37.364844	152.982760	598.676796	-42.868570	248.749519	619.109231	-74.225677	82.595873	558.916798	-51.021319	21.066840	583.381663	-99.370099	181.797685	358.860727	-93.163730	103.905100	422.280476	-26.188962	159.739220	912.770436	-433.039247	234.451618	868.258048	-424.247759	259.809678	893.563358	-412.128089	277.026722	790.560758	-414.522382	332.347672	690.153548	-384.914104	335.965622	673.986512	-269.542019	267.479738	328.272149	-376.034533	195.212904	314.057908	-328.394117	372.651453	230.785850	-402.958758	319.918894	584.393173	-407.857303	325.663250	499.946139	-386.626572	290.366907	418.251818	-384.512569	349.754149	500.491196	-355.554165	458.880891	216.427903	-346.106938	-203.531120	868.610581	-206.602429	-49.330986	83.962949	-413.832691	-48.903066	80.083007	-16.341495	
1754	8.7700	461.598497	1323.094470	-60.161259	492.658004	1315.801194	-358.682814	463.639270	1393.658376	-210.109181	460.505514	1232.988425	-203.200696	534.932866	1085.842192	30.637899	719.941876	924.499362	-43.940546	516.595894	1064.136798	-455.669942	711.269019	926.081384	-391.227884	-50.964752	1118.730455	-218.989217	124.398161	1103.250254	-385.351479	95.243464	1109.138666	-57.604209	146.398150	1047.225429	-350.918192	135.874723	1074.975025	-95.117446	-23.527824	1164.430392	-195.667664	-22.611000	1154.774322	-258.424263	77.753442	1036.608966	-22.715997	97.919381	1024.325757	-416.123846	187.419214	969.668279	-16.097274	274.764067	942.915827	-17.673596	332.950438	879.296747	-15.367742	290.364082	970.786682	-37.804404	382.625589	787.870634	-39.335159	373.576870	764.638175	-152.379328	291.298808	704.628139	-16.643826	238.099836	640.277670	-37.225254	156.679181	604.598727	-42.750494	252.372113	625.855452	-73.347819	85.736302	565.442823	-50.553848	24.477501	588.958384	-99.417206	186.476360	365.481761	-93.180896	108.265730	428.250146	-26.292108	158.534822	910.802465	-432.881811	232.382073	864.994819	-423.990028	258.150354	889.782731	-411.737757	273.598408	786.379800	-414.427078	327.563662	684.882127	-384.722701	330.109055	668.712064	-269.941002	263.552810	322.827465	-375.941772	191.459956	309.079155	-328.290109	368.421815	224.825766	-402.889935	315.035942	579.145086	-407.603918	321.097092	494.708188	-386.641857	285.960524	412.954636	-384.485593	345.339644	495.256752	-355.744760	454.673421	209.966124	-346.169149	-203.521088	868.619018	-206.594931	-49.331148	83.994329	-413.826978	-48.916222	80.087314	-16.327172	
